<?xml version="1.0" encoding="utf-8"?>
<!-- Generator: Adobe Illustrator 17.1.0, SVG Export Plug-In . SVG Version: 6.00 Build 0)  -->
<!DOCTYPE svg PUBLIC "-//W3C//DTD SVG 1.1//EN" "http://www.w3.org/Graphics/SVG/1.1/DTD/svg11.dtd">
<svg version="1.1"
	 id="svg2" xmlns:dc="http://purl.org/dc/elements/1.1/" xmlns:cc="http://creativecommons.org/ns#" xmlns:rdf="http://www.w3.org/1999/02/22-rdf-syntax-ns#" xmlns:svg="http://www.w3.org/2000/svg" xmlns:sodipodi="http://sodipodi.sourceforge.net/DTD/sodipodi-0.dtd" xmlns:inkscape="http://www.inkscape.org/namespaces/inkscape" sodipodi:version="0.32" inkscape:version="0.45+devel" sodipodi:docname="poloshirt.svg" inkscape:output_extension="org.inkscape.output.svg.inkscape"
	 xmlns="http://www.w3.org/2000/svg" xmlns:xlink="http://www.w3.org/1999/xlink" x="0px" y="0px" viewBox="0 0 16 16"
	 enable-background="new 0 0 16 16" xml:space="preserve">
<defs>
	
	
		<inkscape:perspective  sodipodi:type="inkscape:persp3d" inkscape:vp_x="-50 : 600 : 1" inkscape:vp_y="0 : 1000 : 0" inkscape:vp_z="700 : 600 : 1" id="perspective35" inkscape:persp3d-origin="300 : 400 : 1">
		</inkscape:perspective>
</defs>
<sodipodi:namedview  pagecolor="#ffffff" bordercolor="#666666" borderopacity="1.0" gridtolerance="10000" guidetolerance="10" objecttolerance="10" inkscape:zoom="1" inkscape:cx="310.81206" inkscape:cy="147.88556" showgrid="false" showguides="true" id="base" inkscape:pageopacity="0.0" inkscape:pageshadow="2" inkscape:document-units="px" inkscape:current-layer="layer1" inkscape:window-width="899" inkscape:window-height="948" inkscape:window-x="775" inkscape:window-y="24" inkscape:guide-bbox="true">
	<inkscape:grid  type="xygrid" enabled="true" visible="true" id="grid3367"></inkscape:grid>
</sodipodi:namedview>
<g id="layer1" transform="translate(-21.75,-11.09322)" inkscape:label="Layer 1" inkscape:groupmode="layer">
	<g id="g3341" transform="translate(144.125,-690.12578)">
		<path id="path3343" sodipodi:nodetypes="ccccccccccccc" fill="#A80505" stroke="#000000" stroke-width="2" d="M-177.9,301.3
			c34.3,4.6,62.5,3.3,88.9,0l15.8,21.9c68.6,26.1,108.6,23.1,182.1,63.7c-9.4,31.9-11.2,66.8-39.5,91c-23.7-18.5-47-14.6-70.4-20.6
			v267.7c-88.3,16.1-176,20.3-262.5,0V457.3c-20.3,2.4-37.3,0.6-71.3,18.2c-25.5-21.2-33.4-56.1-41-91
			c78.9-35.5,118.4-40.4,182.7-60.1L-177.9,301.3z"/>
		<path id="path3347" sodipodi:nodetypes="cc" fill="#A80505" stroke="#000000" d="M-261.4,346.2c6.4,33.4,18.8,75.3-0.6,110.8"/>
		<path id="path3351" sodipodi:nodetypes="cc" fill="#A80505" stroke="#000000" d="M-364.5,380.8c4.2,34.9,21.9,63.4,40.1,88.3"/>
		<path id="path3353" sodipodi:nodetypes="cc" fill="#A80505" stroke="#000000" d="M-263.8,714.9c87.4,12.4,174.5,17.6,261.9,0"/>
		<path id="path3357" sodipodi:nodetypes="cc" fill="#A80505" stroke="#000000" d="M-3.4,345.3c-6.4,33.4-18.8,75.3,0.6,110.8"/>
		<path id="path3361" sodipodi:nodetypes="cc" fill="#A80505" stroke="#000000" d="M96.8,382.6c-4.2,34.9-21.2,60.7-39.5,85.6"/>
		<path id="path3363" sodipodi:nodetypes="cc" fill="#A80505" stroke="#000000" d="M-190.9,326.8c13,17,96.2,20.6,117.1-2.4"/>
	</g>
</g>
</svg>
